<svg width="160" height="60" viewBox="0 0 160 60" fill="none" xmlns="http://www.w3.org/2000/svg">
<g clip-path="url(#clip0_1314_24315)">
<path d="M24.5409 22.1721V18.6765C24.8858 18.6509 25.2314 18.6363 25.5773 18.6325C35.1644 18.3294 41.4491 26.8801 41.4491 26.8801C41.4491 26.8801 34.6682 36.2937 27.3935 36.2937C26.4206 36.2937 25.4697 36.1421 24.5629 35.8414V25.2179C28.298 25.6701 29.0533 27.3128 31.2777 31.0479L36.2644 26.8581C36.2644 26.8581 32.6173 22.0865 26.4866 22.0865C25.8369 22.072 25.1868 22.1006 24.5409 22.1721ZM24.5409 10.5977V15.8239L25.5773 15.7579C38.8995 15.3057 47.6017 26.6845 47.6017 26.6845C47.6017 26.6845 37.6284 38.8188 27.2395 38.8188C26.3351 38.8188 25.4477 38.7332 24.5629 38.5817V41.8205C25.2962 41.9061 26.054 41.9721 26.7873 41.9721C36.46 41.9721 43.4584 37.027 50.2369 31.197C51.3589 32.1039 55.9569 34.2843 56.9102 35.2352C50.474 40.6325 35.4675 44.9739 26.9584 44.9739C26.1395 44.9739 25.3622 44.9299 24.5849 44.8443V49.4008H61.3346V10.5977H24.5409ZM24.5409 35.839V38.6037C15.6015 37.005 13.118 27.7014 13.118 27.7014C13.118 27.7014 17.4153 22.9494 24.5409 22.1721V25.1959H24.5213C20.7862 24.7412 17.848 28.2392 17.848 28.2392C17.848 28.2392 19.5102 34.1352 24.5433 35.8414M8.67152 27.3103C8.67152 27.3103 13.9613 19.4954 24.5604 18.6741V15.8239C12.8197 16.7748 2.66797 26.7065 2.66797 26.7065C2.66797 26.7065 8.41241 43.3337 24.5409 44.8443V41.8205C12.7097 40.3539 8.67152 27.3103 8.67152 27.3103Z" fill="#0C0C0C" fill-opacity="0.55"/>
</g>
<path d="M103.948 24.6927V39.682H108.179V24.6927H103.948ZM70.668 24.666V39.6678H74.9364V28.0207L78.2644 28.0331C79.3577 28.0331 80.1186 28.2998 80.6395 28.8598C81.3124 29.5709 81.5791 30.7265 81.5791 32.8242V39.6713H85.7213V31.3896C85.7213 25.4696 81.9489 24.6696 78.2653 24.6696L70.668 24.666ZM110.77 24.6927V39.682H117.63C121.288 39.682 122.483 39.0722 123.765 37.7131C124.68 36.7602 125.264 34.6518 125.264 32.3531C125.264 30.2447 124.768 28.3647 123.892 27.1958C122.343 25.0998 120.081 24.6936 116.703 24.6936L110.77 24.6927ZM114.962 27.9442H116.779C119.421 27.9442 121.123 29.1265 121.123 32.1993C121.123 35.2722 119.421 36.4678 116.779 36.4678H114.962V27.9442ZM97.8511 24.6927L94.3195 36.5682L90.9417 24.6927H86.3684L91.1951 39.682H97.2929L102.17 24.6927H97.8511ZM127.244 39.682H131.475V24.6927H127.244V39.682ZM139.108 24.6927L133.201 39.6687H137.36L138.299 37.0136H145.286L146.175 39.6553H150.71L144.752 24.6918L139.108 24.6927ZM141.852 27.4234L144.418 34.4349H139.209L141.852 27.4234Z" fill="#0C0C0C" fill-opacity="0.55"/>
<defs>
<clipPath id="clip0_1314_24315">
<rect width="58.6667" height="58.6667" fill="white" transform="translate(2.66797 0.666016)"/>
</clipPath>
</defs>
</svg>
